<?xml version="1.0" encoding="utf-8"?>
<svg version="1.1" xmlns:xlink="http://www.w3.org/1999/xlink" width="50px" height="49px" xmlns="http://www.w3.org/2000/svg">
  <g transform="matrix(1 0 0 1 -337 -717 )">
    <path d="M 41.0481770833333 27.9772135416667  C 41.4605034722222 27.5731336805556  41.6666666666667 27.0946180555556  41.6666666666667 26.5416666666667  L 41.6666666666667 22.4583333333333  C 41.6666666666667 21.9053819444444  41.4605034722222 21.4268663194444  41.0481770833333 21.0227864583333  C 40.6358506944445 20.6187065972222  40.1475694444445 20.4166666666667  39.5833333333333 21  L 29 21  L 29 10.2083333333333  C 29.1666666666667 9.65538194444444  28.9605034722222 9.17686631944444  28.5481770833333 8.77278645833334  C 28.1358506944444 8.36870659722222  27.6475694444444 8.16666666666666  27.0833333333333 8.16666666666666  L 22.9166666666667 8.16666666666666  C 22.3524305555556 8.16666666666666  21.8641493055556 8.36870659722222  21.4518229166667 8.77278645833334  C 21.0394965277778 9.17686631944444  20.8333333333333 9.65538194444444  21 10.2083333333333  L 21 21  L 10.4166666666667 21  C 9.85243055555556 20.4166666666667  9.36414930555556 20.6187065972222  8.95182291666667 21.0227864583333  C 8.53949652777778 21.4268663194444  8.33333333333333 21.9053819444444  8.33333333333333 22.4583333333333  L 8.33333333333333 26.5416666666667  C 8.33333333333333 27.0946180555556  8.53949652777778 27.5731336805556  8.95182291666667 27.9772135416667  C 9.36414930555556 28.3812934027778  9.85243055555556 28.5833333333333  10.4166666666667 28  L 21 28  L 21 38.7916666666667  C 20.8333333333333 39.3446180555556  21.0394965277778 39.8231336805556  21.4518229166667 40.2272135416667  C 21.8641493055556 40.6312934027778  22.3524305555556 40.8333333333333  22.9166666666667 40.8333333333333  L 27.0833333333333 40.8333333333333  C 27.6475694444444 40.8333333333333  28.1358506944444 40.6312934027778  28.5481770833333 40.2272135416667  C 28.9605034722222 39.8231336805556  29.1666666666667 39.3446180555556  29 38.7916666666667  L 29 28  L 39.5833333333333 28  C 40.1475694444445 28.5833333333333  40.6358506944445 28.3812934027778  41.0481770833333 27.9772135416667  Z M 47.2493489583333 2.69563802083334  C 49.0831163194444 4.49273003472222  50 6.65668402777777  50 9.1875  L 50 39.8125  C 50 42.3433159722222  49.0831163194444 44.5072699652778  47.2493489583333 46.3043619791667  C 45.4155815972222 48.1014539930556  43.2074652777778 49  40.625 49  L 9.375 49  C 6.79253472222222 49  4.58441840277778 48.1014539930556  2.75065104166667 46.3043619791667  C 0.916883680555555 44.5072699652778  0 42.3433159722222  0 39.8125  L 0 9.1875  C 0 6.65668402777777  0.916883680555555 4.49273003472222  2.75065104166667 2.69563802083334  C 4.58441840277778 0.898546006944441  6.79253472222222 0  9.375 0  L 40.625 0  C 43.2074652777778 0  45.4155815972222 0.898546006944441  47.2493489583333 2.69563802083334  Z " fill-rule="nonzero" fill="#a30014" stroke="none" transform="matrix(1 0 0 1 337 717 )" />
  </g>
</svg>