<?xml version="1.0" encoding="utf-8"?>
<svg version="1.1" xmlns:xlink="http://www.w3.org/1999/xlink" width="30px" height="27px" xmlns="http://www.w3.org/2000/svg">
  <g transform="matrix(1 0 0 1 -568 -166 )">
    <path d="M 18.53515625 16.681640625  C 19.51171875 15.802734375  20 14.7421875  20 13.5  C 20 12.2578125  19.51171875 11.197265625  18.53515625 10.318359375  C 17.55859375 9.439453125  16.3802083333333 9  15 9  C 13.6197916666667 9  12.44140625 9.439453125  11.46484375 10.318359375  C 10.48828125 11.197265625  10 12.2578125  10 13.5  C 10 14.7421875  10.48828125 15.802734375  11.46484375 16.681640625  C 12.44140625 17.560546875  13.6197916666667 18  15 18  C 16.3802083333333 18  17.55859375 17.560546875  18.53515625 16.681640625  Z M 29.84375 11.1708984375  C 29.9479166666667 11.2939453125  30 11.431640625  30 11.583984375  L 30 15.486328125  C 30 15.626953125  29.9479166666667 15.76171875  29.84375 15.890625  C 29.7395833333333 16.01953125  29.609375 16.095703125  29.453125 16.119140625  L 25.83984375 16.611328125  C 25.5924479166667 17.244140625  25.3385416666667 17.77734375  25.078125 18.2109375  C 25.5338541666667 18.796875  26.23046875 19.60546875  27.16796875 20.63671875  C 27.2981770833333 20.77734375  27.36328125 20.923828125  27.36328125 21.076171875  C 27.36328125 21.228515625  27.3046875 21.36328125  27.1875 21.48046875  C 26.8359375 21.9140625  26.19140625 22.546875  25.25390625 23.37890625  C 24.31640625 24.2109375  23.7044270833333 24.626953125  23.41796875 24.626953125  C 23.26171875 24.626953125  23.0924479166667 24.57421875  22.91015625 24.46875  L 20.21484375 22.5703125  C 19.6419270833333 22.83984375  19.0494791666667 23.0625  18.4375 23.23828125  C 18.2291666666667 24.83203125  18.0403645833333 25.921875  17.87109375 26.5078125  C 17.7799479166667 26.8359375  17.5455729166667 27  17.16796875 27  L 12.83203125 27  C 12.6497395833333 27  12.490234375 26.9501953125  12.353515625 26.8505859375  C 12.216796875 26.7509765625  12.1419270833333 26.625  12.12890625 26.47265625  L 11.58203125 23.23828125  C 10.9440104166667 23.05078125  10.3580729166667 22.833984375  9.82421875 22.587890625  L 7.0703125 24.46875  C 6.94010416666667 24.57421875  6.77734375 24.626953125  6.58203125 24.626953125  C 6.39973958333333 24.626953125  6.23697916666667 24.5625  6.09375 24.43359375  C 4.453125 23.09765625  3.37890625 22.11328125  2.87109375 21.48046875  C 2.77994791666667 21.36328125  2.734375 21.228515625  2.734375 21.076171875  C 2.734375 20.935546875  2.78645833333333 20.80078125  2.890625 20.671875  C 3.0859375 20.42578125  3.41796875 20.0361328125  3.88671875 19.5029296875  C 4.35546875 18.9697265625  4.70703125 18.556640625  4.94140625 18.263671875  C 4.58984375 17.677734375  4.32291666666667 17.09765625  4.140625 16.5234375  L 0.56640625 16.048828125  C 0.397135416666667 16.025390625  0.260416666666667 15.9521484375  0.15625 15.8291015625  C 0.0520833333333333 15.7060546875  0 15.568359375  0 15.416015625  L 0 11.513671875  C 0 11.373046875  0.0520833333333333 11.23828125  0.15625 11.109375  C 0.260416666666667 10.98046875  0.384114583333333 10.904296875  0.52734375 10.880859375  L 4.16015625 10.388671875  C 4.34244791666667 9.849609375  4.59635416666667 9.310546875  4.921875 8.771484375  C 4.40104166666667 8.103515625  3.70442708333333 7.294921875  2.83203125 6.345703125  C 2.70182291666667 6.205078125  2.63671875 6.064453125  2.63671875 5.923828125  C 2.63671875 5.806640625  2.6953125 5.671875  2.8125 5.51953125  C 3.15104166666667 5.09765625  3.79231770833333 4.4677734375  4.736328125 3.6298828125  C 5.68033854166667 2.7919921875  6.29557291666667 2.373046875  6.58203125 2.373046875  C 6.75130208333333 2.373046875  6.92057291666667 2.431640625  7.08984375 2.548828125  L 9.78515625 4.4296875  C 10.3580729166667 4.16015625  10.9505208333333 3.9375  11.5625 3.76171875  C 11.7708333333333 2.16796875  11.9596354166667 1.078125  12.12890625 0.492187499999999  C 12.2200520833333 0.164062499999999  12.4544270833333 0  12.83203125 0  L 17.16796875 0  C 17.3502604166667 0  17.509765625 0.0498046874999977  17.646484375 0.149414062499999  C 17.783203125 0.249023437499997  17.8580729166667 0.374999999999999  17.87109375 0.52734375  L 18.41796875 3.76171875  C 19.0559895833333 3.94921875  19.6419270833333 4.166015625  20.17578125 4.412109375  L 22.94921875 2.53125  C 23.06640625 2.42578125  23.22265625 2.373046875  23.41796875 2.373046875  C 23.5872395833333 2.373046875  23.75 2.431640625  23.90625 2.548828125  C 25.5859375 3.943359375  26.66015625 4.939453125  27.12890625 5.537109375  C 27.2200520833333 5.630859375  27.265625 5.759765625  27.265625 5.923828125  C 27.265625 6.064453125  27.2135416666667 6.19921875  27.109375 6.328125  C 26.9140625 6.57421875  26.58203125 6.9638671875  26.11328125 7.4970703125  C 25.64453125 8.0302734375  25.29296875 8.443359375  25.05859375 8.736328125  C 25.3971354166667 9.322265625  25.6640625 9.896484375  25.859375 10.458984375  L 29.43359375 10.951171875  C 29.6028645833333 10.974609375  29.7395833333333 11.0478515625  29.84375 11.1708984375  Z " fill-rule="nonzero" fill="#aaaaaa" stroke="none" transform="matrix(1 0 0 1 568 166 )" />
  </g>
</svg>