<?xml version="1.0" encoding="utf-8"?>
<svg version="1.1" xmlns:xlink="http://www.w3.org/1999/xlink" width="36px" height="23px" xmlns="http://www.w3.org/2000/svg">
  <g transform="matrix(1 0 0 1 -269 -491 )">
    <path d="M 18.75 13.3118489583333  L 27.71875 10.6015625  L 28 15.3333333333333  C 28.0416666666667 16.0221354166667  27.6145833333333 16.6610243055556  26.71875 17.25  C 25.8229166666667 17.8389756944444  24.5989583333333 18.3056640625  23.046875 18.6500651041667  C 21.4947916666667 18.9944661458333  19.8125 19.1666666666667  18 19.1666666666667  C 16.1875 19.1666666666667  14.5052083333333 18.9944661458333  12.953125 18.6500651041667  C 11.4010416666667 18.3056640625  10.1770833333333 17.8389756944444  9.28125 17.25  C 8.38541666666667 16.6610243055556  7.95833333333333 16.0221354166667  8 15.3333333333333  L 8.28125 10.6015625  L 17.25 13.3118489583333  C 17.4791666666667 13.3817274305556  17.7291666666667 13.4166666666667  18 13.4166666666667  C 18.2708333333333 13.4166666666667  18.5208333333333 13.3817274305556  18.75 13.3118489583333  Z M 35.65625 5.28580729166667  C 35.8854166666667 5.36566840277778  36 5.52039930555555  36 5.75  C 36 5.97960069444444  35.8854166666667 6.13433159722222  35.65625 6.21419270833333  L 18.15625 11.4850260416667  C 18.1145833333333 11.4950086805556  18.0625 11.5  18 11.5  C 17.9375 11.5  17.8854166666667 11.4950086805556  17.84375 11.4850260416667  L 7.65625 8.400390625  C 7.20833333333333 8.73980034722222  6.83854166666667 9.29633246527778  6.546875 10.0699869791667  C 6.25520833333333 10.8436414930556  6.078125 11.7345920138889  6.015625 12.7428385416667  C 6.671875 13.1022135416667  7 13.6462673611111  7 14.375  C 7 15.0638020833333  6.69791666666667 15.5978732638889  6.09375 15.9772135416667  L 7 22.4609375  C 7.02083333333333 22.6006944444444  6.97916666666667 22.7254774305556  6.875 22.8352864583333  C 6.78125 22.9450954861111  6.65625 23  6.5 23  L 3.5 23  C 3.34375 23  3.21875 22.9450954861111  3.125 22.8352864583333  C 3.02083333333333 22.7254774305556  2.97916666666667 22.6006944444444  3 22.4609375  L 3.90625 15.9772135416667  C 3.30208333333333 15.5978732638889  3 15.0638020833333  3 14.375  C 3 13.6462673611111  3.33854166666667 13.0922309027778  4.015625 12.712890625  C 4.13020833333333 10.646484375  4.640625 8.99934895833333  5.546875 7.771484375  L 0.34375 6.21419270833333  C 0.114583333333333 6.13433159722222  0 5.97960069444444  0 5.75  C 0 5.52039930555555  0.114583333333333 5.36566840277778  0.34375 5.28580729166667  L 17.84375 0.0149739583333325  C 17.8854166666667 0.00499131944444331  17.9375 0  18 0  C 18.0625 0  18.1145833333333 0.00499131944444331  18.15625 0.0149739583333325  L 35.65625 5.28580729166667  Z " fill-rule="nonzero" fill="#aaaaaa" stroke="none" transform="matrix(1 0 0 1 269 491 )" />
  </g>
</svg>