<?xml version="1.0" encoding="utf-8"?>
<svg version="1.1" xmlns:xlink="http://www.w3.org/1999/xlink" width="31px" height="32px" xmlns="http://www.w3.org/2000/svg">
  <g transform="matrix(1 0 0 1 -269 -536 )">
    <path d="M 0.622073578595318 25  L 30.3779264214047 25  L 30.9827201783724 30.7321428571429  C 31.0172798216277 31.0654761904762  30.9251207729469 31.3630952380952  30.70624303233 31.625  C 30.4873652917131 31.875  30.2108881456708 32  29.8768115942029 32  L 1.1231884057971 32  C 0.789111854329246 32  0.512634708286882 31.875  0.293756967670011 31.625  C 0.0748792270531401 31.3630952380952  -0.0172798216276477 31.0654761904762  0.0172798216276477 30.7321428571429  L 0.622073578595318 25  Z M 28.4080267558528 9.4375  C 28.6153846153846 9.63392857142857  28.7363433667781 9.875  28.7709030100334 10.1607142857143  L 30.2569676700111 24  L 0.743032329988852 24  L 2.22909698996656 10.1607142857143  C 2.26365663322185 9.875  2.38461538461538 9.63392857142857  2.59197324414716 9.4375  C 2.79933110367893 9.24107142857143  3.04700854700855 9.14285714285714  3.33500557413601 9.14285714285714  L 7.75863991081382 9.14285714285714  L 7.75863991081382 11.4285714285714  C 7.75863991081382 12.0595238095238  7.97463768115942 12.5982142857143  8.40663322185061 13.0446428571429  C 8.83862876254181 13.4910714285714  9.35990338164251 13.7142857142857  9.97045707915273 13.7142857142857  C 10.581010776663 13.7142857142857  11.1022853957637 13.4910714285714  11.5342809364548 13.0446428571429  C 11.966276477146 12.5982142857143  12.1822742474916 12.0595238095238  12.1822742474916 11.4285714285714  L 12.1822742474916 9.14285714285714  L 18.8177257525084 9.14285714285714  L 18.8177257525084 11.4285714285714  C 18.8177257525084 12.0595238095238  19.033723522854 12.5982142857143  19.4657190635452 13.0446428571429  C 19.8977146042363 13.4910714285714  20.4189892233371 13.7142857142857  21.0295429208473 13.7142857142857  C 21.6400966183575 13.7142857142857  22.1613712374582 13.4910714285714  22.5933667781494 13.0446428571429  C 23.0253623188406 12.5982142857143  23.2413600891862 12.0595238095238  23.2413600891862 11.4285714285714  L 23.2413600891862 9.14285714285714  L 27.664994425864 9.14285714285714  C 27.9529914529915 9.14285714285714  28.2006688963211 9.24107142857143  28.4080267558528 9.4375  Z M 20.1914715719064 2.00892857142857  C 21.4874581939799 3.34821428571428  22.1354515050167 4.96428571428572  22.1354515050167 6.85714285714286  L 22.1354515050167 11.4285714285714  C 22.1354515050167 11.7380952380952  22.0260126347083 12.0059523809524  21.8071348940914 12.2321428571429  C 21.5882571534745 12.4583333333333  21.3290598290598 12.5714285714286  21.0295429208473 12.5714285714286  C 20.7300260126347 12.5714285714286  20.47082868822 12.4583333333333  20.2519509476031 12.2321428571429  C 20.0330732069863 12.0059523809524  19.9236343366778 11.7380952380952  19.9236343366778 11.4285714285714  L 19.9236343366778 6.85714285714286  C 19.9236343366778 5.59523809523809  19.4916387959866 4.51785714285714  18.6276477146042 3.625  C 17.7636566332219 2.73214285714286  16.7211073950204 2.28571428571428  15.5 2.28571428571428  C 14.2788926049796 2.28571428571428  13.2363433667781 2.73214285714286  12.3723522853958 3.625  C 11.5083612040134 4.51785714285714  11.0763656633222 5.59523809523809  11.0763656633222 6.85714285714286  L 11.0763656633222 11.4285714285714  C 11.0763656633222 11.7380952380952  10.9669267930137 12.0059523809524  10.7480490523969 12.2321428571429  C 10.52917131178 12.4583333333333  10.2699739873653 12.5714285714286  9.97045707915273 12.5714285714286  C 9.67094017094017 12.5714285714286  9.41174284652546 12.4583333333333  9.19286510590858 12.2321428571429  C 8.97398736529171 12.0059523809524  8.86454849498328 11.7380952380952  8.86454849498328 11.4285714285714  L 8.86454849498328 6.85714285714286  C 8.86454849498328 4.96428571428572  9.51254180602007 3.34821428571428  10.8085284280936 2.00892857142857  C 12.1045150501672 0.669642857142858  13.6683389074693 0  15.5 0  C 17.3316610925307 0  18.8954849498328 0.669642857142858  20.1914715719064 2.00892857142857  Z " fill-rule="nonzero" fill="#aaaaaa" stroke="none" transform="matrix(1 0 0 1 269 536 )" />
  </g>
</svg>