<?xml version="1.0" encoding="utf-8"?>
<svg version="1.1" xmlns:xlink="http://www.w3.org/1999/xlink" width="30px" height="32px" xmlns="http://www.w3.org/2000/svg">
  <g transform="matrix(1 0 0 1 -438 -538 )">
    <path d="M 10.7142857142857 2.66666666666667  L 10.7142857142857 5.33333333333333  L 19.2857142857143 5.33333333333333  L 19.2857142857143 2.66666666666667  L 10.7142857142857 2.66666666666667  Z M 18.75 18.6666666666667  L 30 18.6666666666667  L 30 28.6666666666667  C 30 29.5833333333333  29.7377232142857 30.3680555555556  29.2131696428571 31.0208333333333  C 28.6886160714286 31.6736111111111  28.0580357142857 32  27.3214285714286 32  L 2.67857142857143 32  C 1.94196428571429 32  1.31138392857143 31.6736111111111  0.786830357142857 31.0208333333333  C 0.262276785714286 30.3680555555556  0 29.5833333333333  0 28.6666666666667  L 0 18.6666666666667  L 11.25 18.6666666666667  L 11.25 22  C 11.25 22.3611111111111  11.3560267857143 22.6736111111111  11.5680803571429 22.9375  C 11.7801339285714 23.2013888888889  12.03125 23.3333333333333  12.3214285714286 23.3333333333333  L 17.6785714285714 23.3333333333333  C 17.96875 23.3333333333333  18.2198660714286 23.2013888888889  18.4319196428571 22.9375  C 18.6439732142857 22.6736111111111  18.75 22.3611111111111  18.75 22  L 18.75 18.6666666666667  Z M 12.8571428571429 18.6666666666667  L 17.1428571428571 18.6666666666667  L 17.1428571428571 21.3333333333333  L 12.8571428571429 21.3333333333333  L 12.8571428571429 18.6666666666667  Z M 29.2131696428571 6.3125  C 29.7377232142857 6.96527777777778  30 7.75  30 8.66666666666667  L 30 16.6666666666667  L 0 16.6666666666667  L 0 8.66666666666667  C 0 7.75  0.262276785714286 6.96527777777778  0.786830357142857 6.3125  C 1.31138392857143 5.65972222222222  1.94196428571429 5.33333333333333  2.67857142857143 5.33333333333333  L 8.57142857142857 5.33333333333333  L 8.57142857142857 2  C 8.57142857142857 1.44444444444444  8.72767857142857 0.972222222222218  9.04017857142857 0.583333333333332  C 9.35267857142857 0.194444444444446  9.73214285714286 0  10.1785714285714 0  L 19.8214285714286 0  C 20.2678571428571 0  20.6473214285714 0.194444444444446  20.9598214285714 0.583333333333332  C 21.2723214285714 0.972222222222218  21.4285714285714 1.44444444444444  21.4285714285714 2  L 21.4285714285714 5.33333333333333  L 27.3214285714286 5.33333333333333  C 28.0580357142857 5.33333333333333  28.6886160714286 5.65972222222222  29.2131696428571 6.3125  Z " fill-rule="nonzero" fill="#aaaaaa" stroke="none" transform="matrix(1 0 0 1 438 538 )" />
  </g>
</svg>