<?xml version="1.0" encoding="utf-8"?>
<svg version="1.1" xmlns:xlink="http://www.w3.org/1999/xlink" width="32px" height="29px" xmlns="http://www.w3.org/2000/svg">
  <g transform="matrix(1 0 0 1 -438 -491 )">
    <path d="M 29.7142857142857 2.41352405721717  L 29.7142857142857 9.65409622886866  C 30.3452380952381 9.65409622886866  30.8839285714286 9.88979193758128  31.3303571428571 10.3611833550065  C 31.7767857142857 10.8325747724317  32 11.4013870827915  32 12.0676202860858  C 32 12.7338534893801  31.7767857142857 13.3026657997399  31.3303571428571 13.7740572171651  C 30.8839285714286 14.2454486345904  30.3452380952381 14.481144343303  29.7142857142857 14.481144343303  L 29.7142857142857 21.7217165149545  C 29.7142857142857 22.3753792804508  29.4880952380952 22.9410489813611  29.0357142857143 23.4187256176853  C 28.5833333333333 23.8964022540095  28.047619047619 24.1352405721717  27.4285714285714 24.1352405721717  C 22.4642857142857 19.7732986562635  17.6309523809524 17.3849154746424  12.9285714285714 16.9700910273082  C 12.2380952380952 17.2089293454703  11.6964285714286 17.6237537928045  11.3035714285714 18.2145643693108  C 10.9107142857143 18.8053749458171  10.7261904761905 19.4370394451669  10.75 20.1095578673602  C 10.7738095238095 20.7820762895535  11.0119047619048 21.3634590377113  11.4642857142857 21.8537061118335  C 11.2261904761905 22.2685305591678  11.0892857142857 22.6802123970524  11.0535714285714 23.0887516254876  C 11.0178571428571 23.4972908539228  11.0535714285714 23.861833550065  11.1607142857143 24.1823797139142  C 11.2678571428571 24.5029258777633  11.4672619047619 24.8486129172085  11.7589285714286 25.2194408322497  C 12.0505952380952 25.5902687472909  12.3363095238095 25.904529692241  12.6160714285714 26.1622236671001  C 12.8958333333333 26.4199176419593  13.2619047619048 26.7373211963589  13.7142857142857 27.1144343302991  C 13.3690476190476 27.8435197225834  12.7053571428571 28.3651928912007  11.7232142857143 28.6794538361508  C 10.7410714285714 28.993714781101  9.73809523809524 29.0659947984395  8.71428571428571 28.8962938881665  C 7.69047619047619 28.7265929778934  6.90476190476191 28.3777633289987  6.35714285714286 27.8498049414824  C 6.27380952380952 27.5606848721283  6.09821428571429 27.0107282184655  5.83035714285714 26.1999349804941  C 5.5625 25.3891417425228  5.37202380952381 24.795188556567  5.25892857142857 24.4180754226268  C 5.14583333333333 24.0409622886866  5.00892857142857 23.4815778066753  4.84821428571429 22.739921976593  C 4.6875 21.9982661465106  4.59821428571429 21.3634590377113  4.58035714285714 20.8355006501951  C 4.5625 20.3075422626788  4.58333333333333 19.688448201127  4.64285714285714 18.9782184655397  C 4.70238095238095 18.2679887299523  4.83333333333333 17.5734720416125  5.03571428571429 16.8946684005202  L 2.85714285714286 16.8946684005202  C 2.07142857142857 16.8946684005202  1.39880952380952 16.599263112267  0.839285714285714 16.0084525357607  C 0.279761904761905 15.4176419592544  0 14.7074122236671  0 13.8777633289987  L 0 10.257477243173  C 0 9.42782834850455  0.279761904761905 8.71759861291721  0.839285714285714 8.12678803641092  C 1.39880952380952 7.53597745990464  2.07142857142857 7.2405721716515  2.85714285714286 7.2405721716515  L 11.4285714285714 7.2405721716515  C 16.6071428571429 7.2405721716515  21.9404761904762 4.82704811443433  27.4285714285714 0  C 28.047619047619 0  28.5833333333333 0.238838318162112  29.0357142857143 0.716514954486347  C 29.4880952380952 1.19419159081057  29.7142857142857 1.75986129172085  29.7142857142857 2.41352405721717  Z M 13.7142857142857 14.6131339401821  C 18.202380952381 15.1410923276983  22.7738095238095 17.2843519722583  27 21.0429128738622  L 27 3.05461638491547  C 22.7380952380952 6.85088859991331  18.1666666666667 9.00671868227135  13.7142857142857 9.5221066319896  L 13.7142857142857 14.6131339401821  Z " fill-rule="nonzero" fill="#aaaaaa" stroke="none" transform="matrix(1 0 0 1 438 491 )" />
  </g>
</svg>