<?xml version="1.0" encoding="utf-8"?>
<svg version="1.1" xmlns:xlink="http://www.w3.org/1999/xlink" width="35px" height="32px" xmlns="http://www.w3.org/2000/svg">
  <g transform="matrix(1 0 0 1 -435 -590 )">
    <path d="M 26.5234375 28.9375  C 26.7898637820513 28.6736111111111  26.9230769230769 28.3611111111111  26.9230769230769 28  C 26.9230769230769 27.6388888888889  26.7898637820513 27.3263888888889  26.5234375 27.0625  C 26.2570112179487 26.7986111111111  25.9415064102564 26.6666666666667  25.5769230769231 26.6666666666667  C 25.2123397435897 26.6666666666667  24.8968349358974 26.7986111111111  24.6304086538462 27.0625  C 24.3639823717949 27.3263888888889  24.2307692307692 27.6388888888889  24.2307692307692 28  C 24.2307692307692 28.3611111111111  24.3639823717949 28.6736111111111  24.6304086538462 28.9375  C 24.8968349358974 29.2013888888889  25.2123397435897 29.3333333333333  25.5769230769231 29.3333333333333  C 25.9415064102564 29.3333333333333  26.2570112179487 29.2013888888889  26.5234375 28.9375  Z M 31.9080528846154 28.9375  C 32.1744791666667 28.6736111111111  32.3076923076923 28.3611111111111  32.3076923076923 28  C 32.3076923076923 27.6388888888889  32.1744791666667 27.3263888888889  31.9080528846154 27.0625  C 31.6416266025641 26.7986111111111  31.3261217948718 26.6666666666667  30.9615384615385 26.6666666666667  C 30.5969551282051 26.6666666666667  30.2814503205128 26.7986111111111  30.0150240384615 27.0625  C 29.7485977564103 27.3263888888889  29.6153846153846 27.6388888888889  29.6153846153846 28  C 29.6153846153846 28.3611111111111  29.7485977564103 28.6736111111111  30.0150240384615 28.9375  C 30.2814503205128 29.2013888888889  30.5969551282051 29.3333333333333  30.9615384615385 29.3333333333333  C 31.3261217948718 29.3333333333333  31.6416266025641 29.2013888888889  31.9080528846154 28.9375  Z M 34.4110576923077 21.9166666666667  C 34.8036858974359 22.3055555555556  35 22.7777777777778  35 23.3333333333333  L 35 30  C 35 30.5555555555556  34.8036858974359 31.0277777777778  34.4110576923077 31.4166666666667  C 34.0184294871795 31.8055555555556  33.5416666666667 32  32.9807692307692 32  L 2.01923076923077 32  C 1.45833333333333 32  0.981570512820513 31.8055555555556  0.588942307692308 31.4166666666667  C 0.196314102564103 31.0277777777778  0 30.5555555555556  0 30  L 0 23.3333333333333  C 0 22.7777777777778  0.196314102564103 22.3055555555556  0.588942307692308 21.9166666666667  C 0.981570512820513 21.5277777777778  1.45833333333333 21.3333333333333  2.01923076923077 21.3333333333333  L 11.7998798076923 21.3333333333333  L 14.6394230769231 24.1666666666667  C 15.4527243589744 24.9444444444444  16.40625 25.3333333333333  17.5 25.3333333333333  C 18.59375 25.3333333333333  19.5472756410256 24.9444444444444  20.3605769230769 24.1666666666667  L 23.2211538461538 21.3333333333333  L 32.9807692307692 21.3333333333333  C 33.5416666666667 21.3333333333333  34.0184294871795 21.5277777777778  34.4110576923077 21.9166666666667  Z M 26.9230769230769 10.6666666666667  C 27.5120192307692 10.6666666666667  27.9256810897436 10.9375  28.1640625 11.4791666666667  C 28.4024439102564 12.0486111111111  28.3042868589744 12.5347222222222  27.8695913461538 12.9375  L 18.4465144230769 22.2708333333333  C 18.1941105769231 22.5347222222222  17.8786057692308 22.6666666666667  17.5 22.6666666666667  C 17.1213942307692 22.6666666666667  16.8058894230769 22.5347222222222  16.5534855769231 22.2708333333333  L 7.13040865384615 12.9375  C 6.69571314102564 12.5347222222222  6.59755608974359 12.0486111111111  6.8359375 11.4791666666667  C 7.07431891025641 10.9375  7.48798076923077 10.6666666666667  8.07692307692308 10.6666666666667  L 13.4615384615385 10.6666666666667  L 13.4615384615385 1.33333333333333  C 13.4615384615385 0.972222222222218  13.5947516025641 0.659722222222218  13.8611778846154 0.395833333333332  C 14.1276041666667 0.131944444444446  14.443108974359 0  14.8076923076923 0  L 20.1923076923077 0  C 20.556891025641 0  20.8723958333333 0.131944444444446  21.1388221153846 0.395833333333332  C 21.4052483974359 0.659722222222218  21.5384615384615 0.972222222222218  21.5384615384615 1.33333333333333  L 21.5384615384615 10.6666666666667  L 26.9230769230769 10.6666666666667  Z " fill-rule="nonzero" fill="#aaaaaa" stroke="none" transform="matrix(1 0 0 1 435 590 )" />
  </g>
</svg>