<?xml version="1.0" encoding="utf-8"?>
<svg version="1.1" xmlns:xlink="http://www.w3.org/1999/xlink" width="30px" height="29px" xmlns="http://www.w3.org/2000/svg">
  <g transform="matrix(1 0 0 1 -270 -593 )">
    <path d="M 28.469387755102 5.79622395833333  C 28.9255702280912 5.98502604166667  29.2797118847539 6.25564236111111  29.53181272509 6.60807291666667  C 30.0120048019208 7.32552083333333  30.1200480192077 8.13736979166667  29.8559423769508 9.04361979166667  L 24.9039615846339 26.1490885416667  C 24.6758703481393 26.9546440972222  24.2166866746699 27.6311848958333  23.5264105642257 28.1787109375  C 22.8361344537815 28.7262369791667  22.1008403361345 29  21.3205282112845 29  L 4.69987995198079 29  C 3.77551020408163 29  2.88415366146459 28.6633029513889  2.02581032412965 27.9899088541667  C 1.16746698679472 27.3165147569444  0.570228091236495 26.4889322916667  0.234093637454982 25.5071614583333  C -0.0540216086434574 24.6638454861111  -0.0660264105642257 23.8645833333333  0.198079231692677 23.109375  C 0.198079231692677 23.0590277777778  0.21608643457383 22.8891059027778  0.252100840336134 22.599609375  C 0.288115246098439 22.3101128472222  0.312124849939976 22.0772569444444  0.324129651860744 21.9010416666667  C 0.336134453781513 21.8003472222222  0.31812725090036 21.6650390625  0.270108043217287 21.4951171875  C 0.222088835534214 21.3251953125  0.204081632653061 21.2024739583333  0.21608643457383 21.126953125  C 0.240096038415366 20.9884982638889  0.288115246098439 20.8563368055556  0.360144057623049 20.73046875  C 0.432172869147659 20.6046006944444  0.531212484993998 20.4567057291667  0.657262905162065 20.2867838541667  C 0.783313325330132 20.1168619791667  0.882352941176471 19.9689670138889  0.95438175270108 19.8430989583333  C 1.23049219687875 19.3648003472222  1.50060024009604 18.7889539930556  1.76470588235294 18.1155598958333  C 2.02881152460984 17.4421657986111  2.20888355342137 16.8663194444444  2.30492196878751 16.3880208333333  C 2.34093637454982 16.2621527777778  2.34393757503001 16.0733506944444  2.31392557022809 15.8216145833333  C 2.28391356542617 15.5698784722222  2.28091236494598 15.3936631944444  2.30492196878751 15.29296875  C 2.34093637454982 15.1545138888889  2.44297719087635 14.9782986111111  2.61104441776711 14.7643229166667  C 2.77911164465786 14.5503472222222  2.88115246098439 14.4055989583333  2.9171668667467 14.330078125  C 3.16926770708283 13.876953125  3.42136854741897 13.2979600694444  3.6734693877551 12.5930989583333  C 3.92557022809124 11.8882378472222  4.07563025210084 11.3218315972222  4.12364945978391 10.8938802083333  C 4.13565426170468 10.7805989583333  4.12064825930372 10.5792100694444  4.07863145258103 10.2897135416667  C 4.03661464585834 10.0002170138889  4.03961584633854 9.82400173611111  4.08763505402161 9.76106770833333  C 4.13565426170468 9.59743923611111  4.26770708283313 9.40549045138889  4.48379351740696 9.18522135416667  C 4.69987995198079 8.96495225694444  4.83193277310924 8.82335069444444  4.87995198079232 8.76041666666667  C 5.10804321728692 8.43315972222222  5.36314525810324 7.9013671875  5.6452581032413 7.1650390625  C 5.92737094837935 6.4287109375  6.09243697478992 5.82139756944444  6.14045618247299 5.34309895833333  C 6.15246098439376 5.24240451388888  6.13445378151261 5.08192274305555  6.08643457382953 4.86165364583333  C 6.03841536614646 4.64138454861111  6.02641056422569 4.474609375  6.05042016806723 4.361328125  C 6.07442977190876 4.26063368055555  6.12845138055222 4.14735243055555  6.2124849939976 4.021484375  C 6.29651860744298 3.89561631944444  6.40456182472989 3.75086805555555  6.53661464585834 3.58723958333333  C 6.6686674669868 3.42361111111111  6.77070828331333 3.29144965277778  6.84273709483794 3.19075520833333  C 6.93877551020408 3.03971354166667  7.03781512605042 2.84776475694444  7.13985594237695 2.61490885416667  C 7.24189675870348 2.38205295138888  7.33193277310924 2.16178385416667  7.40996398559424 1.9541015625  C 7.48799519807923 1.74641927083333  7.58403361344538 1.51985677083333  7.69807923169268 1.2744140625  C 7.81212484993998 1.02897135416667  7.92917166866747 0.827582465277776  8.04921968787515 0.670247395833332  C 8.16926770708283 0.512912326388885  8.32833133253301 0.365017361111109  8.52641056422569 0.2265625  C 8.72448979591837 0.088107638888885  8.9405762304922 0.0157335069444441  9.17466986794718 0.00944010416666774  C 9.40876350540216 0.00314670138888495  9.69387755102041 0.0377604166666677  10.0300120048019 0.11328125  L 10.0120048019208 0.169921875  C 10.46818727491 0.056640625  10.7743097238896 0  10.9303721488595 0  L 24.6338535414166 0  C 25.5222088835534 0  26.2064825930372 0.352430555555553  26.6866746698679 1.05729166666667  C 27.1668667466987 1.76215277777778  27.2749099639856 2.58029513888888  27.0108043217287 3.51171875  L 22.0768307322929 20.6171875  C 21.6446578631453 22.1150173611111  21.2154861944778 23.0810546875  20.7893157262905 23.5152994791667  C 20.3631452581032 23.9495442708333  19.5918367346939 24.1666666666667  18.4753901560624 24  L 2.82713085234094 24  C 2.50300120048019 24.1666666666667  2.27490996398559 24.2610677083333  2.14285714285714 24.4498697916667  C 2.01080432172869 24.6512586805556  2.00480192076831 24.921875  2.12484993997599 25.26171875  C 2.41296518607443 26.1427951388889  3.27731092436975 26.5833333333333  4.71788715486194 26.5833333333333  L 21.3385354141657 26.5833333333333  C 21.6866746698679 26.5833333333333  22.0228091236495 26.4857855902778  22.3469387755102 26.2906901041667  C 22.6710684273709 26.0955946180556  22.8811524609844 25.8344184027778  22.9771908763505 25.5071614583333  L 28.3793517406963 6.87239583333333  C 28.4633853541417 6.59548611111111  28.4933973589436 6.23676215277778  28.469387755102 5.79622395833333  Z M 10.750300120048 5.4375  L 10.3721488595438 6.64583333333333  C 10.3241296518607 6.80946180555555  10.3361344537815 6.95106336805555  10.4081632653061 7.07063802083333  C 10.4801920768307 7.19021267361111  10.6002400960384 7.25  10.7683073229292 7.25  L 21.7166866746699 7.25  C 21.8727490996399 7.25  22.0258103241297 7.19021267361111  22.1758703481393 7.07063802083333  C 22.3259303721489 6.95106336805555  22.4249699879952 6.80946180555555  22.4729891956783 6.64583333333333  L 22.8511404561825 5.4375  C 22.8991596638655 5.27387152777778  22.8871548619448 5.13226996527778  22.8151260504202 5.0126953125  C 22.7430972388956 4.89312065972222  22.6230492196879 4.83333333333333  22.4549819927971 5  L 11.5066026410564 5  C 11.3505402160864 4.83333333333333  11.1974789915966 4.89312065972222  11.047418967587 5.0126953125  C 10.8973589435774 5.13226996527778  10.7983193277311 5.27387152777778  10.750300120048 5.4375  Z M 9.25570228091236 10.2708333333333  L 8.87755102040816 11.4791666666667  C 8.82953181272509 11.6427951388889  8.84153661464586 11.7843967013889  8.91356542617047 11.9039713541667  C 8.98559423769508 12.0235460069444  9.10564225690276 12.0833333333333  9.27370948379352 12  L 20.2220888355342 12  C 20.3781512605042 12.0833333333333  20.531212484994 12.0235460069444  20.6812725090036 11.9039713541667  C 20.8313325330132 11.7843967013889  20.9303721488595 11.6427951388889  20.9783913565426 11.4791666666667  L 21.3565426170468 10.2708333333333  C 21.4045618247299 10.1072048611111  21.3925570228091 9.96560329861111  21.3205282112845 9.84602864583333  C 21.2484993997599 9.72645399305556  21.1284513805522 9.66666666666667  20.9603841536615 10  L 10.0120048019208 10  C 9.85594237695078 9.66666666666667  9.70288115246099 9.72645399305556  9.55282112845138 9.84602864583333  C 9.40276110444178 9.96560329861111  9.30372148859544 10.1072048611111  9.25570228091236 10.2708333333333  Z " fill-rule="nonzero" fill="#aaaaaa" stroke="none" transform="matrix(1 0 0 1 270 593 )" />
  </g>
</svg>