<?xml version="1.0" encoding="utf-8"?>
<svg version="1.1" xmlns:xlink="http://www.w3.org/1999/xlink" width="44px" height="49px" xmlns="http://www.w3.org/2000/svg">
  <g transform="matrix(1 0 0 1 -323 -701 )">
    <path d="M 36.1223958333333 27.9772135416667  C 36.4852430555556 27.5731336805556  36.6666666666667 27.0946180555556  36.6666666666667 26.5416666666667  L 36.6666666666667 22.4583333333333  C 36.6666666666667 21.9053819444444  36.4852430555556 21.4268663194444  36.1223958333333 21.0227864583333  C 35.7595486111111 20.6187065972222  35.3298611111111 20.4166666666667  34.8333333333333 20.4166666666667  L 25 20.4166666666667  L 25 10.2083333333333  C 25.6666666666667 9.65538194444444  25.4852430555556 9.17686631944444  25.1223958333333 8.77278645833334  C 24.7595486111111 8.36870659722222  24.3298611111111 8.16666666666666  23.8333333333333 8.16666666666666  L 20.1666666666667 8.16666666666666  C 19.6701388888889 8.16666666666666  19.2404513888889 8.36870659722222  18.8776041666667 8.77278645833334  C 18.5147569444444 9.17686631944444  18.3333333333333 9.65538194444444  19 10.2083333333333  L 19 20.4166666666667  L 9.16666666666667 20.4166666666667  C 8.67013888888889 20.4166666666667  8.24045138888889 20.6187065972222  7.87760416666667 21.0227864583333  C 7.51475694444445 21.4268663194444  7.33333333333333 21.9053819444444  7.33333333333333 22.4583333333333  L 7.33333333333333 26.5416666666667  C 7.33333333333333 27.0946180555556  7.51475694444445 27.5731336805556  7.87760416666667 27.9772135416667  C 8.24045138888889 28.3812934027778  8.67013888888889 28.5833333333333  9.16666666666667 28.5833333333333  L 19 28.5833333333333  L 19 38.7916666666667  C 18.3333333333333 39.3446180555556  18.5147569444444 39.8231336805556  18.8776041666667 40.2272135416667  C 19.2404513888889 40.6312934027778  19.6701388888889 40.8333333333333  20.1666666666667 40.8333333333333  L 23.8333333333333 40.8333333333333  C 24.3298611111111 40.8333333333333  24.7595486111111 40.6312934027778  25.1223958333333 40.2272135416667  C 25.4852430555556 39.8231336805556  25.6666666666667 39.3446180555556  25 38.7916666666667  L 25 28.5833333333333  L 34.8333333333333 28.5833333333333  C 35.3298611111111 28.5833333333333  35.7595486111111 28.3812934027778  36.1223958333333 27.9772135416667  Z M 41.5794270833333 2.69563802083334  C 43.1931423611111 4.49273003472222  44 6.65668402777777  44 9.1875  L 44 39.8125  C 44 42.3433159722222  43.1931423611111 44.5072699652778  41.5794270833333 46.3043619791667  C 39.9657118055556 48.1014539930556  38.0225694444445 49  35.75 49  L 8.25 49  C 5.97743055555556 49  4.03428819444444 48.1014539930556  2.42057291666667 46.3043619791667  C 0.806857638888889 44.5072699652778  0 42.3433159722222  0 39.8125  L 0 9.1875  C 0 6.65668402777777  0.806857638888889 4.49273003472222  2.42057291666667 2.69563802083334  C 4.03428819444444 0.898546006944441  5.97743055555556 0  8.25 0  L 35.75 0  C 38.0225694444445 0  39.9657118055556 0.898546006944441  41.5794270833333 2.69563802083334  Z " fill-rule="nonzero" fill="#a30014" stroke="none" transform="matrix(1 0 0 1 323 701 )" />
  </g>
</svg>