<?xml version="1.0" encoding="utf-8"?>
<svg version="1.1" xmlns:xlink="http://www.w3.org/1999/xlink" width="30px" height="33px" xmlns="http://www.w3.org/2000/svg">
  <g transform="matrix(1 0 0 1 -531 -700 )">
    <path d="M 29.80078125 23.8583984375  C 29.93359375 24.9397786458333  30 26.0891927083333  30 27.306640625  C 30 28.8678385416667  29.51171875 30.20703125  28.53515625 31.32421875  C 27.55859375 32.44140625  26.3828125 33  25.0078125 33  L 4.9921875 33  C 3.6171875 33  2.44140625 32.44140625  1.46484375 31.32421875  C 0.48828125 30.20703125  0 28.8678385416667  0 27.306640625  C 0 26.0891927083333  0.0664062500000002 24.9397786458333  0.19921875 23.8583984375  C 0.33203125 22.7770182291667  0.578125 21.6884765625  0.9375 20.5927734375  C 1.296875 19.4970703125  1.75390625 18.5589192708333  2.30859375 17.7783203125  C 2.86328125 16.9977213541667  3.59765625 16.3603515625  4.51171875 15.8662109375  C 5.42578125 15.3720703125  6.4765625 15.125  7.6640625 15.125  C 9.7109375 16.9583333333333  12.15625 17.875  15 17.875  C 17.84375 17.875  20.2890625 16.9583333333333  22.3359375 15.125  C 23.5234375 15.125  24.57421875 15.3720703125  25.48828125 15.8662109375  C 26.40234375 16.3603515625  27.13671875 16.9977213541667  27.69140625 17.7783203125  C 28.24609375 18.5589192708333  28.703125 19.4970703125  29.0625 20.5927734375  C 29.421875 21.6884765625  29.66796875 22.7770182291667  29.80078125 23.8583984375  Z M 21.36328125 2.4169921875  C 23.12109375 4.0283203125  24 5.97265625  24 8.25  C 24 10.52734375  23.12109375 12.4716796875  21.36328125 14.0830078125  C 19.60546875 15.6943359375  17.484375 16.5  15 16.5  C 12.515625 16.5  10.39453125 15.6943359375  8.63671875 14.0830078125  C 6.87890625 12.4716796875  6 10.52734375  6 8.25  C 6 5.97265625  6.87890625 4.0283203125  8.63671875 2.4169921875  C 10.39453125 0.8056640625  12.515625 0  15 0  C 17.484375 0  19.60546875 0.8056640625  21.36328125 2.4169921875  Z " fill-rule="nonzero" fill="#aaaaaa" stroke="none" transform="matrix(1 0 0 1 531 700 )" />
  </g>
</svg>