<?xml version="1.0" encoding="utf-8"?>
<svg version="1.1" xmlns:xlink="http://www.w3.org/1999/xlink" width="22px" height="23px" xmlns="http://www.w3.org/2000/svg">
  <g transform="matrix(1 0 0 1 -547 -150 )">
    <path d="M 4.59765625 16.8824573863636  C 4.67540922619048 16.9859138257576  4.71428571428571 17.108428030303  4.71428571428571 17.25  L 4.71428571428571 18.2954545454545  C 4.71428571428571 18.4370265151515  4.67540922619048 18.559540719697  4.59765625 18.6629971590909  C 4.51990327380952 18.7664535984848  4.42782738095238 18.8181818181818  4.32142857142857 18.8181818181818  L 3.53571428571429 18.8181818181818  C 3.42931547619048 18.8181818181818  3.33723958333333 18.7664535984848  3.25948660714286 18.6629971590909  C 3.18173363095238 18.559540719697  3.14285714285714 18.4370265151515  3.14285714285714 18.2954545454545  L 3.14285714285714 17.25  C 3.14285714285714 17.108428030303  3.18173363095238 16.9859138257576  3.25948660714286 16.8824573863636  C 3.33723958333333 16.7790009469697  3.42931547619048 16.7272727272727  3.53571428571429 16.7272727272727  L 4.32142857142857 16.7272727272727  C 4.42782738095238 16.7272727272727  4.51990327380952 16.7790009469697  4.59765625 16.8824573863636  Z M 4.59765625 12.7006392045455  C 4.67540922619048 12.8040956439394  4.71428571428571 12.9266098484848  4.71428571428571 13.0681818181818  L 4.71428571428571 14.1136363636364  C 4.71428571428571 14.2552083333333  4.67540922619048 14.3777225378788  4.59765625 14.4811789772727  C 4.51990327380952 14.5846354166667  4.42782738095238 14.6363636363636  4.32142857142857 14.6363636363636  L 3.53571428571429 14.6363636363636  C 3.42931547619048 14.6363636363636  3.33723958333333 14.5846354166667  3.25948660714286 14.4811789772727  C 3.18173363095238 14.3777225378788  3.14285714285714 14.2552083333333  3.14285714285714 14.1136363636364  L 3.14285714285714 13.0681818181818  C 3.14285714285714 12.9266098484848  3.18173363095238 12.8040956439394  3.25948660714286 12.7006392045455  C 3.33723958333333 12.5971827651515  3.42931547619048 12.5454545454545  3.53571428571429 12.5454545454545  L 4.32142857142857 12.5454545454545  C 4.42782738095238 12.5454545454545  4.51990327380952 12.5971827651515  4.59765625 12.7006392045455  Z M 4.59765625 8.51882102272727  C 4.67540922619048 8.62227746212121  4.71428571428571 8.74479166666666  4.71428571428571 8.88636363636364  L 4.71428571428571 9.93181818181818  C 4.71428571428571 10.0733901515152  4.67540922619048 10.1959043560606  4.59765625 10.2993607954545  C 4.51990327380952 10.4028172348485  4.42782738095238 10.4545454545455  4.32142857142857 10.4545454545455  L 3.53571428571429 10.4545454545455  C 3.42931547619048 10.4545454545455  3.33723958333333 10.4028172348485  3.25948660714286 10.2993607954545  C 3.18173363095238 10.1959043560606  3.14285714285714 10.0733901515152  3.14285714285714 9.93181818181818  L 3.14285714285714 8.88636363636364  C 3.14285714285714 8.74479166666666  3.18173363095238 8.62227746212121  3.25948660714286 8.51882102272727  C 3.33723958333333 8.41536458333333  3.42931547619048 8.36363636363636  3.53571428571429 8.36363636363636  L 4.32142857142857 8.36363636363636  C 4.42782738095238 8.36363636363636  4.51990327380952 8.41536458333333  4.59765625 8.51882102272727  Z M 18.7405133928571 16.8824573863636  C 18.8182663690476 16.9859138257576  18.8571428571429 17.108428030303  18.8571428571429 17.25  L 18.8571428571429 18.2954545454545  C 18.8571428571429 18.4370265151515  18.8182663690476 18.559540719697  18.7405133928571 18.6629971590909  C 18.6627604166667 18.7664535984848  18.5706845238095 18.8181818181818  18.4642857142857 18.8181818181818  L 6.67857142857143 18.8181818181818  C 6.57217261904762 18.8181818181818  6.48009672619048 18.7664535984848  6.40234375 18.6629971590909  C 6.32459077380952 18.559540719697  6.28571428571429 18.4370265151515  6.28571428571429 18.2954545454545  L 6.28571428571429 17.25  C 6.28571428571429 17.108428030303  6.32459077380952 16.9859138257576  6.40234375 16.8824573863636  C 6.48009672619048 16.7790009469697  6.57217261904762 16.7272727272727  6.67857142857143 16.7272727272727  L 18.4642857142857 16.7272727272727  C 18.5706845238095 16.7272727272727  18.6627604166667 16.7790009469697  18.7405133928571 16.8824573863636  Z M 18.7405133928571 12.7006392045455  C 18.8182663690476 12.8040956439394  18.8571428571429 12.9266098484848  18.8571428571429 13.0681818181818  L 18.8571428571429 14.1136363636364  C 18.8571428571429 14.2552083333333  18.8182663690476 14.3777225378788  18.7405133928571 14.4811789772727  C 18.6627604166667 14.5846354166667  18.5706845238095 14.6363636363636  18.4642857142857 14.6363636363636  L 6.67857142857143 14.6363636363636  C 6.57217261904762 14.6363636363636  6.48009672619048 14.5846354166667  6.40234375 14.4811789772727  C 6.32459077380952 14.3777225378788  6.28571428571429 14.2552083333333  6.28571428571429 14.1136363636364  L 6.28571428571429 13.0681818181818  C 6.28571428571429 12.9266098484848  6.32459077380952 12.8040956439394  6.40234375 12.7006392045455  C 6.48009672619048 12.5971827651515  6.57217261904762 12.5454545454545  6.67857142857143 12.5454545454545  L 18.4642857142857 12.5454545454545  C 18.5706845238095 12.5454545454545  18.6627604166667 12.5971827651515  18.7405133928571 12.7006392045455  Z M 18.7405133928571 8.51882102272727  C 18.8182663690476 8.62227746212121  18.8571428571429 8.74479166666666  18.8571428571429 8.88636363636364  L 18.8571428571429 9.93181818181818  C 18.8571428571429 10.0733901515152  18.8182663690476 10.1959043560606  18.7405133928571 10.2993607954545  C 18.6627604166667 10.4028172348485  18.5706845238095 10.4545454545455  18.4642857142857 10.4545454545455  L 6.67857142857143 10.4545454545455  C 6.57217261904762 10.4545454545455  6.48009672619048 10.4028172348485  6.40234375 10.2993607954545  C 6.32459077380952 10.1959043560606  6.28571428571429 10.0733901515152  6.28571428571429 9.93181818181818  L 6.28571428571429 8.88636363636364  C 6.28571428571429 8.74479166666666  6.32459077380952 8.62227746212121  6.40234375 8.51882102272727  C 6.48009672619048 8.41536458333333  6.57217261904762 8.36363636363636  6.67857142857143 8.36363636363636  L 18.4642857142857 8.36363636363636  C 18.5706845238095 8.36363636363636  18.6627604166667 8.41536458333333  18.7405133928571 8.51882102272727  Z M 20.3119419642857 20.75390625  C 20.3896949404762 20.6504498106061  20.4285714285714 20.5279356060606  20 20.3863636363636  L 20 6.79545454545455  C 20.4285714285714 6.65388257575757  20.3896949404762 6.53136837121212  20.3119419642857 6.42791193181818  C 20.2341889880952 6.32445549242424  20.1421130952381 6.27272727272727  20.0357142857143 6.27272727272727  L 1.96428571428571 6.27272727272727  C 1.8578869047619 6.27272727272727  1.76581101190476 6.32445549242424  1.68805803571429 6.42791193181818  C 1.61030505952381 6.53136837121212  1.57142857142857 6.65388257575757  2 6.79545454545455  L 2 20.3863636363636  C 1.57142857142857 20.5279356060606  1.61030505952381 20.6504498106061  1.68805803571429 20.75390625  C 1.76581101190476 20.8573626893939  1.8578869047619 20.9090909090909  1.96428571428571 21  L 20.0357142857143 21  C 20.1421130952381 20.9090909090909  20.2341889880952 20.8573626893939  20.3119419642857 20.75390625  Z M 21.4229910714286 0.767755681818181  C 21.8076636904762 1.2795928030303  22 1.89488636363636  22 2.61363636363636  L 22 20.3863636363636  C 22 21.1051136363636  21.8076636904762 21.7204071969697  21.4229910714286 22.2322443181818  C 21.038318452381 22.7440814393939  20.5758928571429 23  20.0357142857143 23  L 1.96428571428571 23  C 1.42410714285714 23  0.961681547619048 22.7440814393939  0.577008928571429 22.2322443181818  C 0.19233630952381 21.7204071969697  0 21.1051136363636  0 20.3863636363636  L 0 2.61363636363636  C 0 1.89488636363636  0.19233630952381 1.2795928030303  0.577008928571429 0.767755681818181  C 0.961681547619048 0.255918560606058  1.42410714285714 0  1.96428571428571 0  L 20.0357142857143 0  C 20.5758928571429 0  21.038318452381 0.255918560606058  21.4229910714286 0.767755681818181  Z " fill-rule="nonzero" fill="#555555" stroke="none" transform="matrix(1 0 0 1 547 150 )" />
  </g>
</svg>