<?xml version="1.0" encoding="utf-8"?>
<svg version="1.1" xmlns:xlink="http://www.w3.org/1999/xlink" width="16px" height="20px" xmlns="http://www.w3.org/2000/svg">
  <g transform="matrix(1 0 0 1 -231 -152 )">
    <path d="M 9.8125 12.265625  C 10.6554487179487 11.2119391025641  11.0769230769231 9.94391025641026  11.0769230769231 8.46153846153846  C 11.0769230769231 6.97916666666667  10.6554487179487 5.71113782051282  9.8125 4.65745192307692  C 8.96955128205128 3.60376602564102  7.95512820512821 3.07692307692308  6.76923076923077 3.07692307692308  C 5.58333333333333 3.07692307692308  4.56891025641026 3.60376602564102  3.72596153846154 4.65745192307692  C 2.88301282051282 5.71113782051282  2.46153846153846 6.97916666666667  2.46153846153846 8.46153846153846  C 2.46153846153846 9.94391025641026  2.88301282051282 11.2119391025641  3.72596153846154 12.265625  C 4.56891025641026 13.3193108974359  5.58333333333333 13.8461538461538  6.76923076923077 13.8461538461538  C 7.95512820512821 13.8461538461538  8.96955128205128 13.3193108974359  9.8125 12.265625  Z M 15.6442307692308 17.3798076923077  C 15.8814102564103 17.6762820512821  16 18.036858974359  16 18.4615384615385  C 16 18.8782051282051  15.8782051282051 19.2387820512821  15.6346153846154 19.5432692307692  C 15.3910256410256 19.8477564102564  15.1025641025641 20  14.7692307692308 20  C 14.4230769230769 20  14.1346153846154 19.8477564102564  13.9038461538462 19.5432692307692  L 10.6057692307692 15.4326923076923  C 9.45833333333333 16.4262820512821  8.17948717948718 16.9230769230769  6.76923076923077 16.9230769230769  C 5.8525641025641 16.9230769230769  4.97596153846154 16.7007211538462  4.13942307692308 16.2560096153846  C 3.30288461538462 15.8112980769231  2.58173076923077 15.2103365384615  1.97596153846154 14.453125  C 1.37019230769231 13.6959134615385  0.889423076923077 12.7944711538462  0.533653846153846 11.7487980769231  C 0.177884615384615 10.703125  0 9.60737179487179  0 8.46153846153846  C 0 7.31570512820513  0.177884615384615 6.21995192307692  0.533653846153846 5.17427884615385  C 0.889423076923077 4.12860576923077  1.37019230769231 3.22716346153846  1.97596153846154 2.46995192307692  C 2.58173076923077 1.71274038461539  3.30288461538462 1.11177884615385  4.13942307692308 0.667067307692308  C 4.97596153846154 0.222355769230769  5.8525641025641 0  6.76923076923077 0  C 7.68589743589744 0  8.5625 0.222355769230769  9.39903846153846 0.667067307692308  C 10.2355769230769 1.11177884615385  10.9567307692308 1.71274038461539  11.5625 2.46995192307692  C 12.1682692307692 3.22716346153846  12.6490384615385 4.12860576923077  13.0048076923077 5.17427884615385  C 13.3605769230769 6.21995192307692  13.5384615384615 7.31570512820513  13.5384615384615 8.46153846153846  C 13.5384615384615 10.224358974359  13.1410256410256 11.8229166666667  12.3461538461538 13.2572115384615  L 15.6442307692308 17.3798076923077  Z " fill-rule="nonzero" fill="#555555" stroke="none" transform="matrix(1 0 0 1 231 152 )" />
  </g>
</svg>