<?xml version="1.0" encoding="utf-8"?>
<svg version="1.1" xmlns:xlink="http://www.w3.org/1999/xlink" width="24px" height="23px" xmlns="http://www.w3.org/2000/svg">
  <g transform="matrix(1 0 0 1 -258 -187 )">
    <path d="M 13.859375 19.0319010416667  C 13.953125 18.9420572916667  14 18.8272569444444  14 18.6875  L 14 15.8125  C 14 15.6727430555556  13.953125 15.5579427083333  13.859375 15.4680989583333  C 13.765625 15.3782552083333  13.6458333333333 15.3333333333333  13.5 15.3333333333333  L 10.5 15.3333333333333  C 10.3541666666667 15.3333333333333  10.234375 15.3782552083333  10.140625 15.4680989583333  C 10.046875 15.5579427083333  10 15.6727430555556  10 15.8125  L 10 18.6875  C 10 18.8272569444444  10.046875 18.9420572916667  10.140625 19.0319010416667  C 10.234375 19.1217447916667  10.3541666666667 19.1666666666667  10.5 19.1666666666667  L 13.5 19.1666666666667  C 13.6458333333333 19.1666666666667  13.765625 19.1217447916667  13.859375 19.0319010416667  Z M 17.8046875 9.837890625  C 17.9348958333333 9.46853298611111  18 9.06423611111111  18 8.625  C 18 7.74652777777778  17.7109375 6.93294270833333  17.1328125 6.18424479166667  C 16.5546875 5.435546875  15.8333333333333 4.85655381944444  14.96875 4.447265625  C 14.1041666666667 4.03797743055555  13.21875 3.83333333333333  12.3125 3.83333333333333  C 9.78125 3.83333333333333  7.84895833333333 4.896484375  6.515625 7.02278645833333  C 6.359375 7.26236979166667  6.40104166666667 7.47200520833333  6.640625 7.65169270833333  L 8.703125 9.14908854166667  C 8.77604166666667 9.208984375  8.875 9.23893229166667  9 9.23893229166667  C 9.16666666666667 9.23893229166667  9.296875 9.17903645833333  9.390625 9.05924479166667  C 9.94270833333333 8.38042534722222  10.390625 7.92122395833333  10.734375 7.681640625  C 11.0885416666667 7.44205729166667  11.5364583333333 7.322265625  12.078125 7.322265625  C 12.578125 7.322265625  13.0234375 7.45203993055555  13.4140625 7.71158854166667  C 13.8046875 7.97113715277778  14 8.265625  14 8.59505208333333  C 14 8.97439236111111  13.8958333333333 9.27886284722222  13.6875 9.50846354166667  C 13.4791666666667 9.73806423611111  13.125 9.96267361111111  12.625 10.1822916666667  C 11.96875 10.4618055555556  11.3671875 10.8935546875  10.8203125 11.4775390625  C 10.2734375 12.0615234375  10 12.6879340277778  10 13.3567708333333  L 10 13.8958333333333  C 10 14.0355902777778  10.046875 14.150390625  10.140625 14.240234375  C 10.234375 14.330078125  10.3541666666667 14.375  10.5 14.375  L 13.5 14.375  C 13.6458333333333 14.375  13.765625 14.330078125  13.859375 14.240234375  C 13.953125 14.150390625  14 14.0355902777778  14 13.8958333333333  C 14 13.7061631944444  14.1119791666667 13.4590928819444  14.3359375 13.1546223958333  C 14.5598958333333 12.8501519097222  14.84375 12.6030815972222  15.1875 12.4134114583333  C 15.5208333333333 12.2337239583333  15.7760416666667 12.0914713541667  15.953125 11.9866536458333  C 16.1302083333333 11.8818359375  16.3697916666667 11.7071397569444  16.671875 11.4625651041667  C 16.9739583333333 11.2179904513889  17.2057291666667 10.9784071180556  17.3671875 10.7438151041667  C 17.5286458333333 10.5092230902778  17.6744791666667 10.2072482638889  17.8046875 9.837890625  Z M 22.390625 5.7275390625  C 23.4635416666667 7.48947482638889  24 9.41362847222222  24 11.5  C 24 13.5863715277778  23.4635416666667 15.5105251736111  22.390625 17.2724609375  C 21.3177083333333 19.0343967013889  19.8619791666667 20.4294704861111  18.0234375 21.4576822916667  C 16.1848958333333 22.4858940972222  14.1770833333333 23  12 23  C 9.82291666666667 23  7.81510416666667 22.4858940972222  5.9765625 21.4576822916667  C 4.13802083333333 20.4294704861111  2.68229166666667 19.0343967013889  1.609375 17.2724609375  C 0.536458333333333 15.5105251736111  0 13.5863715277778  0 11.5  C 0 9.41362847222222  0.536458333333333 7.48947482638889  1.609375 5.7275390625  C 2.68229166666667 3.96560329861111  4.13802083333333 2.57052951388889  5.9765625 1.54231770833333  C 7.81510416666667 0.514105902777776  9.82291666666667 0  12 0  C 14.1770833333333 0  16.1848958333333 0.514105902777776  18.0234375 1.54231770833333  C 19.8619791666667 2.57052951388889  21.3177083333333 3.96560329861111  22.390625 5.7275390625  Z " fill-rule="nonzero" fill="#a30014" stroke="none" transform="matrix(1 0 0 1 258 187 )" />
  </g>
</svg>