<?xml version="1.0" encoding="utf-8"?>
<svg version="1.1" xmlns:xlink="http://www.w3.org/1999/xlink" width="30px" height="33px" xmlns="http://www.w3.org/2000/svg">
  <g transform="matrix(1 0 0 1 -267 -692 )">
    <path d="M 20.703125 1.25223214285714  L 28.671875 8.765625  C 28.8541666666667 8.9375  29.0364583333333 9.15848214285714  29.21875 9.42857142857143  L 20 9.42857142857143  L 20 0.736607142857144  C 20.2864583333333 0.908482142857141  20.5208333333333 1.08035714285714  20.703125 1.25223214285714  Z M 18.046875 11.2700892857143  C 18.4114583333333 11.6138392857143  18.8541666666667 11.7857142857143  19.375 12  L 30 12  L 30 31.2321428571429  C 30 31.7232142857143  29.8177083333333 32.140625  29.453125 32.484375  C 29.0885416666667 32.828125  28.6458333333333 33  28.125 33  L 1.875 33  C 1.35416666666667 33  0.911458333333333 32.828125  0.546875 32.484375  C 0.182291666666667 32.140625  0 31.7232142857143  0 31.2321428571429  L 0 1.76785714285714  C 0 1.27678571428571  0.182291666666667 0.859374999999999  0.546875 0.515625  C 0.911458333333333 0.171875000000001  1.35416666666667 0  1.875 0  L 17 0  L 17 10.0178571428571  C 17.5 10.5089285714286  17.6822916666667 10.9263392857143  18.046875 11.2700892857143  Z M 22.32421875 25.7628348214286  C 22.44140625 25.65234375  22.5 25.5111607142857  22.5 25.3392857142857  L 22.5 24.1607142857143  C 22.5 23.9888392857143  22.44140625 23.84765625  22.32421875 23.7371651785714  C 22.20703125 23.6266741071429  22.0572916666667 23.5714285714286  21.875 23  L 8.125 23  C 7.94270833333333 23.5714285714286  7.79296875 23.6266741071429  7.67578125 23.7371651785714  C 7.55859375 23.84765625  7.5 23.9888392857143  7.5 24.1607142857143  L 7.5 25.3392857142857  C 7.5 25.5111607142857  7.55859375 25.65234375  7.67578125 25.7628348214286  C 7.79296875 25.8733258928571  7.94270833333333 25.9285714285714  8.125 26  L 21.875 26  C 22.0572916666667 25.9285714285714  22.20703125 25.8733258928571  22.32421875 25.7628348214286  Z M 22.32421875 21.0485491071429  C 22.44140625 20.9380580357143  22.5 20.796875  22.5 20.625  L 22.5 19.4464285714286  C 22.5 19.2745535714286  22.44140625 19.1333705357143  22.32421875 19.0228794642857  C 22.20703125 18.9123883928571  22.0572916666667 18.8571428571429  21.875 18.8571428571429  L 8.125 18.8571428571429  C 7.94270833333333 18.8571428571429  7.79296875 18.9123883928571  7.67578125 19.0228794642857  C 7.55859375 19.1333705357143  7.5 19.2745535714286  7.5 19.4464285714286  L 7.5 20.625  C 7.5 20.796875  7.55859375 20.9380580357143  7.67578125 21.0485491071429  C 7.79296875 21.1590401785714  7.94270833333333 21.2142857142857  8.125 21  L 21.875 21  C 22.0572916666667 21.2142857142857  22.20703125 21.1590401785714  22.32421875 21.0485491071429  Z M 22.32421875 16.3342633928571  C 22.44140625 16.2237723214286  22.5 16.0825892857143  22.5 15.9107142857143  L 22.5 14.7321428571429  C 22.5 14.5602678571429  22.44140625 14.4190848214286  22.32421875 14.30859375  C 22.20703125 14.1981026785714  22.0572916666667 14.1428571428571  21.875 14.1428571428571  L 8.125 14.1428571428571  C 7.94270833333333 14.1428571428571  7.79296875 14.1981026785714  7.67578125 14.30859375  C 7.55859375 14.4190848214286  7.5 14.5602678571429  7.5 14.7321428571429  L 7.5 15.9107142857143  C 7.5 16.0825892857143  7.55859375 16.2237723214286  7.67578125 16.3342633928571  C 7.79296875 16.4447544642857  7.94270833333333 16.5  8.125 16  L 21.875 16  C 22.0572916666667 16.5  22.20703125 16.4447544642857  22.32421875 16.3342633928571  Z " fill-rule="nonzero" fill="#aaaaaa" stroke="none" transform="matrix(1 0 0 1 267 692 )" />
  </g>
</svg>