<?xml version="1.0" encoding="utf-8"?>
<svg version="1.1" xmlns:xlink="http://www.w3.org/1999/xlink" width="45px" height="49px" xmlns="http://www.w3.org/2000/svg">
  <g transform="matrix(1 0 0 1 -357 -693 )">
    <path d="M 36.943359375 27.9772135416667  C 37.314453125 27.5731336805556  37.5 27.0946180555556  37.5 26.5416666666667  L 37.5 22.4583333333333  C 37.5 21.9053819444444  37.314453125 21.4268663194444  36.943359375 21.0227864583333  C 36.572265625 20.6187065972222  36.1328125 20.4166666666667  35.625 20.4166666666667  L 26 20.4166666666667  L 26 10.2083333333333  C 26.25 9.65538194444444  26.064453125 9.17686631944444  25.693359375 8.77278645833334  C 25.322265625 8.36870659722222  24.8828125 8.16666666666666  24.375 8.16666666666666  L 20.625 8.16666666666666  C 20.1171875 8.16666666666666  19.677734375 8.36870659722222  19.306640625 8.77278645833334  C 18.935546875 9.17686631944444  18.75 9.65538194444444  19 10.2083333333333  L 19 20.4166666666667  L 9.375 20.4166666666667  C 8.8671875 20.4166666666667  8.427734375 20.6187065972222  8.056640625 21.0227864583333  C 7.685546875 21.4268663194444  7.5 21.9053819444444  7.5 22.4583333333333  L 7.5 26.5416666666667  C 7.5 27.0946180555556  7.685546875 27.5731336805556  8.056640625 27.9772135416667  C 8.427734375 28.3812934027778  8.8671875 28.5833333333333  9.375 28.5833333333333  L 19 28.5833333333333  L 19 38.7916666666667  C 18.75 39.3446180555556  18.935546875 39.8231336805556  19.306640625 40.2272135416667  C 19.677734375 40.6312934027778  20.1171875 40.8333333333333  20.625 40.8333333333333  L 24.375 40.8333333333333  C 24.8828125 40.8333333333333  25.322265625 40.6312934027778  25.693359375 40.2272135416667  C 26.064453125 39.8231336805556  26.25 39.3446180555556  26 38.7916666666667  L 26 28.5833333333333  L 35.625 28.5833333333333  C 36.1328125 28.5833333333333  36.572265625 28.3812934027778  36.943359375 27.9772135416667  Z M 42.5244140625 2.69563802083334  C 44.1748046875 4.49273003472222  45 6.65668402777777  45 9.1875  L 45 39.8125  C 45 42.3433159722222  44.1748046875 44.5072699652778  42.5244140625 46.3043619791667  C 40.8740234375 48.1014539930556  38.88671875 49  36.5625 49  L 8.4375 49  C 6.11328125 49  4.1259765625 48.1014539930556  2.4755859375 46.3043619791667  C 0.8251953125 44.5072699652778  0 42.3433159722222  0 39.8125  L 0 9.1875  C 0 6.65668402777777  0.8251953125 4.49273003472222  2.4755859375 2.69563802083334  C 4.1259765625 0.898546006944441  6.11328125 0  8.4375 0  L 36.5625 0  C 38.88671875 0  40.8740234375 0.898546006944441  42.5244140625 2.69563802083334  Z " fill-rule="nonzero" fill="#a30014" stroke="none" transform="matrix(1 0 0 1 357 693 )" />
  </g>
</svg>