<?xml version="1.0" encoding="utf-8"?>
<svg version="1.1" xmlns:xlink="http://www.w3.org/1999/xlink" width="34px" height="33px" xmlns="http://www.w3.org/2000/svg">
  <g transform="matrix(1 0 0 1 -473 -692 )">
    <path d="M 17 31.5267857142857  C 17.2179487179487 31.5267857142857  17.3269230769231 31.4285714285714  17.3269230769231 31.2321428571429  C 17.3269230769231 31.0357142857143  17.2179487179487 30.9375  17 30.9375  C 16.1963141025641 30.9375  15.5050080128205 30.6766183035714  14.9260817307692 30.1548549107143  C 14.347155448718 29.6330915178571  14.0576923076923 29.0100446428571  14.0576923076923 28.2857142857143  C 14.0576923076923 28.0892857142857  13.948717948718 27.9910714285714  13.7307692307692 27.9910714285714  C 13.5128205128205 27.9910714285714  13.4038461538462 28.0892857142857  13.4038461538462 28.2857142857143  C 13.4038461538462 29.1819196428571  13.7546073717949 29.9461495535714  14.4561298076923 30.5784040178571  C 15.1576522435897 31.2106584821429  16.005608974359 31.5267857142857  17 31.5267857142857  Z M 32.140625 24.3080357142857  C 32.6991185897436 24.8727678571429  33.3189102564103 25.4129464285714  34 25.9285714285714  C 34 26.5669642857143  33.7411858974359 27.1194196428571  33.2235576923077 27.5859375  C 32.7059294871795 28.0524553571429  32.0929487179487 28.2857142857143  31.3846153846154 28.2857142857143  L 22.2307692307692 28.2857142857143  C 22.2307692307692 29.5870535714286  21.7199519230769 30.6981026785714  20.6983173076923 31.6188616071429  C 19.6766826923077 32.5396205357143  18.4439102564103 33  17 33  C 15.5560897435897 33  14.3233173076923 32.5396205357143  13.3016826923077 31.6188616071429  C 12.2800480769231 30.6981026785714  11.7692307692308 29.5870535714286  11.7692307692308 28.2857142857143  L 2.61538461538462 28.2857142857143  C 1.90705128205128 28.2857142857143  1.29407051282051 28.0524553571429  0.776442307692308 27.5859375  C 0.258814102564103 27.1194196428571  0 26.5669642857143  0 25.9285714285714  C 0.681089743589744 25.4129464285714  1.30088141025641 24.8727678571429  1.859375 24.3080357142857  C 2.41786858974359 23.7433035714286  2.99679487179487 23.009765625  3.59615384615385 22.107421875  C 4.19551282051282 21.205078125  4.70292467948718 20.2321428571429  5.11838942307692 19.1886160714286  C 5.53385416666667 18.1450892857143  5.87439903846154 16.8805803571429  6.14002403846154 15.3950892857143  C 6.40564903846154 13.9095982142857  6.53846153846154 12.3136160714286  6.53846153846154 10.6071428571429  C 6.53846153846154 8.74107142857143  7.33533653846154 7.00697544642857  8.92908653846154 5.40485491071428  C 10.5228365384615 3.802734375  12.6137820512821 2.82979910714286  15.2019230769231 2.48604910714286  C 15.0929487179487 2.25279017857143  15.0384615384615 2.01339285714286  15.0384615384615 1.76785714285714  C 15.0384615384615 1.27678571428571  15.2291666666667 0.859374999999999  15.6105769230769 0.515625  C 15.9919871794872 0.171875000000001  16.4551282051282 0  17 0  C 17.5448717948718 0  18.0080128205128 0.171875000000001  18.3894230769231 0.515625  C 18.7708333333333 0.859374999999999  18.9615384615385 1.27678571428571  18.9615384615385 1.76785714285714  C 18.9615384615385 2.01339285714286  18.9070512820513 2.25279017857143  18.7980769230769 2.48604910714286  C 21.386217948718 2.82979910714286  23.4771634615385 3.802734375  25.0709134615385 5.40485491071428  C 26.6646634615385 7.00697544642857  27.4615384615385 8.74107142857143  27.4615384615385 10.6071428571429  C 27.4615384615385 12.3136160714286  27.5943509615385 13.9095982142857  27.8599759615385 15.3950892857143  C 28.1256009615385 16.8805803571429  28.4661458333333 18.1450892857143  28.8816105769231 19.1886160714286  C 29.2970753205128 20.2321428571429  29.8044871794872 21.205078125  30.4038461538462 22.107421875  C 31.0032051282051 23.009765625  31.5821314102564 23.7433035714286  32.140625 24.3080357142857  Z " fill-rule="nonzero" fill="#a30014" stroke="none" transform="matrix(1 0 0 1 473 692 )" />
  </g>
</svg>