<?xml version="1.0" encoding="utf-8"?>
<svg version="1.1" xmlns:xlink="http://www.w3.org/1999/xlink" width="18px" height="17px" xmlns="http://www.w3.org/2000/svg">
  <g transform="matrix(1 0 0 1 -590 -191 )">
    <path d="M 17.6748387096774 2.34680134680133  C 17.8916129032258 2.61391694725027  18 2.93827160493827  18 3.31986531986533  C 18 3.70145903479235  17.8916129032258 4.02581369248035  17.6748387096774 4.29292929292929  L 14.2508270523644 8.51209816546008  L 9.26709677419355 14.6531986531987  L 7.68774193548387 16.5993265993266  C 7.47096774193549 16.8664421997755  7.20774193548388 17  6.89806451612903 17  C 6.58838709677419 17  6.32516129032259 16.8664421997755  6.10838709677419 16.5993265993266  L 4.52903225806452 14.6531986531987  L 0.325161290322577 9.47306397306396  C 0.108387096774197 9.20594837261502  0 8.88159371492706  0 8.5  C 0 8.11840628507294  0.108387096774197 7.79405162738494  0.325161290322577 7.52693602693604  L 1.90451612903226 5.58080808080808  C 2.12129032258065 5.31369248035914  2.38451612903226 5.18013468013467  2.6941935483871 5.18013468013467  C 3.00387096774194 5.18013468013467  3.26709677419355 5.31369248035914  3.48387096774194 5.58080808080808  L 6.89806451612903 9.80218855218855  L 14.5161290322581 0.400673400673412  C 14.7329032258065 0.133557800224471  14.9961290322581 0  15.3058064516129 0  C 15.6154838709677 0  15.8787096774194 0.133557800224471  16.0954838709678 0.400673400673412  L 17.6748387096774 2.34680134680133  Z " fill-rule="nonzero" fill="#aaaaaa" stroke="none" transform="matrix(1 0 0 1 590 191 )" />
  </g>
</svg>